<svg width="330" height="369" viewBox="0 0 330 369" fill="none" xmlns="http://www.w3.org/2000/svg">
<path d="M294.692 126.847L165.335 36.2702C149.121 50.6614 122.139 74.8743 88.3359 104.339C33.9395 152.313 57.4354 207.681 83.815 255.937C85.1204 258.348 86.3355 260.246 87.3396 262.446L94.0876 275.254L108.43 277.214C110.63 277.707 113.041 277.898 115.753 278.3C170.121 286.584 230.256 289.626 256.661 222.202C273.09 180.571 286.242 146.824 294.29 126.566M329.356 116.245C329.356 116.245 310.627 163.3 283.538 232.341C244.312 332.396 143.209 310.697 104.489 305.287L75.8034 301.366L62.3074 275.751C44.1722 241.799 -10.9887 153.633 69.6164 82.5509C125.63 33.7636 163.341 6.58506e-05 163.341 6.58506e-05L329.356 116.245ZM112.084 368.828L0.000809004 290.347L75.8034 301.366L112.084 368.828Z" fill="#833996" fill-opacity="0.1"/>
</svg>
