<svg width="448" height="612" viewBox="0 0 448 612" fill="none" xmlns="http://www.w3.org/2000/svg">
<path d="M271.993 59.9921L57.6153 210.101C70.8368 243.507 93.2498 299.251 119.976 368.594C163.853 480.498 263.395 475.291 353.497 461.562C357.991 460.896 361.637 460.079 365.632 459.763L389.401 456.513L400.584 435.288C402.598 432.142 404.262 428.496 406.426 424.501C450.143 344.528 488.965 252.604 398.933 173.266C343.413 124.085 298.313 84.4745 271.327 60.4583M275.131 6.79532e-05C275.131 6.79532e-05 337.793 55.8382 429.956 137.157C563.539 254.958 472.44 400.106 442.069 457.338L419.703 499.788L372.163 506.287C309.01 515.284 140.443 551.213 75.4341 385.396C31.2067 270.512 0.00157678 192.648 0.00157678 192.648L275.131 6.79532e-05ZM545.327 481.527L359.577 611.59L419.703 499.788L545.327 481.527Z" fill="#833996" fill-opacity="0.1"/>
</svg>
